<svg
  t="1678860721701"
  class="icon"
  viewBox="0 0 1194 1024"
  version="1.1"
  xmlns="http://www.w3.org/2000/svg"
  p-id="2616"
  width="200"
  height="200"
>
  <path
    d="M1052.416 113.749333H142.250667v796.501334L670.72 381.44c22.186667-22.186667 58.282667-22.186667 80.469333 0l301.226667 301.738667V113.749333z m-1024-57.258666A56.917333 56.917333 0 0 1 84.906667 0h1024.853333c31.232 0 56.490667 25.344 56.490667 56.490667v911.018666a56.917333 56.917333 0 0 1-56.490667 56.490667H84.906667a56.490667 56.490667 0 0 1-56.490667-56.490667V56.490667z m341.333333 398.592a113.749333 113.749333 0 1 1 0-227.498667 113.749333 113.749333 0 0 1 0 227.498667z"
    fill="#666666"
    p-id="2617">

  </path>
</svg>
